HIERARCHY
ROOT ui
{
	 OFFSET 0 0 0
	 CHANNELS 3 XPosition YPosition Z Position
	 EndSite
	 {
	 OFFSET 0 -1 0
	 }
}
ROOT li
{
	 OFFSET 0 0 0
	 CHANNELS 3 XPosition YPosition Z Position
	 EndSite
	 {
	 OFFSET 0 -1 0
	 }
}
ROOT ul
{
	 OFFSET 0 0 0
	 CHANNELS 3 XPosition YPosition Z Position
	 EndSite
	 {
	 OFFSET 0 -1 0
	 }
}
ROOT ll
{
	 OFFSET 0 0 0
	 CHANNELS 3 XPosition YPosition Z Position
	 EndSite
	 {
	 OFFSET 0 -1 0
	 }
}
ROOT tt
{
	 OFFSET 0 0 0
	 CHANNELS 3 XPosition YPosition Z Position
	 EndSite
	 {
	 OFFSET 0 -1 0
	 }
}
ROOT tb
{
	 OFFSET 0 0 0
	 CHANNELS 3 XPosition YPosition Z Position
	 EndSite
	 {
	 OFFSET 0 -1 0
	 }
}
ROOT td
{
	 OFFSET 0 0 0
	 CHANNELS 3 XPosition YPosition Z Position
	 EndSite
	 {
	 OFFSET 0 -1 0
	 }
}
ROOT v
{
	 OFFSET 0 0 0
	 CHANNELS 3 XPosition YPosition Z Position
	 EndSite
	 {
	 OFFSET 0 -1 0
	 }
}
ROOT bn
{
	 OFFSET 0 0 0
	 CHANNELS 3 XPosition YPosition Z Position
	 EndSite
	 {
	 OFFSET 0 -1 0
	 }
}
MOTION
Frames: 32
Frame Time: 0.002
0.05143401718139649	-0.0019097750186920165	0		0.54551904296875	-2.566970703125	0		-0.9251530151367188	0.37227706909179686	0		-0.35381527709960936	-3.37632080078125	0		1.692147705078125	-1.058850341796875	0		2.946865234375	0.2823482666015625	0		4.3088662109375	0.38447457885742187	0		5.998869140625	0.4838472900390625	0		-0.05838090133666992	5.93893017578125	0		
-0.02664940643310547	6.423770189285279E-4	0		0.5453917236328125	-2.56678955078125	0		-0.8573445434570313	0.3672738037109375	0		-0.2890799255371094	-3.384274169921875	0		1.6882049560546875	-1.048607177734375	0		2.94675390625	0.282515869140625	0		4.32175341796875	0.38440646362304687	0		5.99589990234375	0.49204925537109373	0		-0.05846071243286133	5.93911474609375	0		
-0.026740942001342773	8.643739819526673E-4	0		0.5172882080078125	-2.566079833984375	0		-0.9294226684570313	0.3687648010253906	0		-0.3422199096679687	-3.385119873046875	0		1.696281005859375	-1.0385379638671874	0		2.970642822265625	0.2812978820800781	0		4.32392724609375	0.39956341552734376	0		5.9955126953125	0.47523562622070314	0		-0.22399810791015626	5.9132373046875	0		
0.05114503479003906	-0.001247406005859375	0		0.518239501953125	-2.56284375	0		-0.9195062255859375	0.36885272216796877	0		-0.3094017944335937	-3.389439208984375	0		1.7043641357421875	-1.02843359375	0		2.95689599609375	0.30077880859375	0		4.31898681640625	0.40787918090820313	0		5.99572998046875	0.4924512634277344	0		-0.04238705062866211	5.94931201171875	0		
-0.026916473388671876	0.0014130179882049562	0		0.5123622436523437	-2.54945263671875	0		-0.9515198974609375	0.3737105712890625	0		-0.35019076538085936	-3.370428955078125	0		1.71449365234375	-1.0153306884765625	0		2.9655771484375	0.28789581298828126	0		4.3349130859375	0.4088628845214844	0		6.003640625	0.4925655822753906	0		-0.04244239044189453	5.949603515625	0		
-0.027028564453125	0.0017351599931716918	0		0.5469862060546875	-2.563745849609375	0		-0.8536453247070312	0.37231549072265624	0		-0.32044717407226564	-3.37763134765625	0		1.68952099609375	-1.0065791625976563	0		2.979868408203125	0.3109536437988281	0		4.3299443359375	0.41725006103515627	0		6.00353076171875	0.4928578796386719	0		-0.0557690200805664	5.93615625	0		
-0.03024391746520996	-0.0018606549501419068	0		0.5089948120117187	-2.55373095703125	0		-0.9298479614257813	0.37000570678710937	0		-0.3206056823730469	-3.377279296875	0		1.7055272216796875	-0.9975174560546874	0		2.971549560546875	0.3014350280761719	0		4.3328173828125	0.41853128051757815	0		5.99854638671875	0.5022720031738281	0		-0.05783867645263672	5.9395419921875	0		
-0.03042952537536621	-0.0014835859537124633	0		0.5347618408203125	-2.555812255859375	0		-0.9291731567382813	0.36236932373046876	0		-0.3645668640136719	-3.3631298828125	0		1.69942724609375	-0.9920413208007812	0		2.97136474609375	0.30180245971679687	0		4.34463134765625	0.4186833801269531	0		5.99006494140625	0.4857729187011719	0		-0.1742333221435547	5.9279599609375	0		
-0.03065449333190918	-0.0010826419591903687	0		0.5235303955078126	-2.5552197265625	0		-0.957251953125	0.3712641296386719	0		-0.3488753356933594	-3.367008544921875	0		1.7045499267578126	-0.9717368774414062	0		2.98810302734375	0.2998952941894531	0		4.34440771484375	0.4190704040527344	0		6.011978515625	0.49376669311523436	0		-0.17345713806152344	5.92734375	0		
0.05625048828125	0.007808734893798828	0		0.551259765625	-2.555291259765625	0		-0.8444727783203125	0.37270263671875	0		-0.34403973388671877	-3.360673583984375	0		1.680732421875	-0.945902099609375	0		2.9891630859375	0.3182870483398437	0		4.35529052734375	0.42728314208984375	0		6.00272412109375	0.4943265380859375	0		-0.042309707641601565	5.9484599609375	0		
-0.02812273406982422	0.0037284939289093017	0		0.51313330078125	-2.545184814453125	0		-0.929932373046875	0.3636442565917969	0		-0.29435885620117186	-3.36210986328125	0		1.7224591064453125	-0.9452057495117188	0		2.955607177734375	0.30330001831054687	0		4.34988916015625	0.42079696655273435	0		6.0024453125	0.49474493408203124	0		-0.056758586883544924	5.93814990234375	0		
0.05837333297729492	-0.008342449188232421	0		0.5377327880859375	-2.55016845703125	0		-0.8592387084960937	0.3628572082519531	0		-0.3585205993652344	-3.352526123046875	0		1.6793931884765625	-0.9310015258789063	0		2.9942880859375	0.3020582580566406	0		4.34959423828125	0.4212347412109375	0		5.9970107421875	0.48726434326171875	0		-0.05702837753295899	5.93860791015625	0		
-0.03179933738708496	7.099800109863281E-4	0		0.51046484375	-2.546226806640625	0		-0.9305352783203125	0.36458184814453126	0		-0.2950010375976562	-3.361178955078125	0		1.7213353271484375	-0.9162828369140625	0		3.01285400390625	0.2951772155761719	0		4.36228515625	0.4214501037597656	0		6.00184375	0.49560940551757815	0		-0.1906692352294922	5.91942236328125	0		
0.044848819732666016	-0.0011659259796142577	0		0.5219966430664063	-2.5529619140625	0		-0.9308546142578125	0.36506875610351563	0		-0.34329049682617185	-3.3568525390625	0		1.6843458251953125	-0.8961691284179687	0		3.003764404296875	0.30878839111328127	0		4.37396435546875	0.42168255615234373	0		6.00152587890625	0.49603976440429687	0		-0.17476966857910156	5.92961962890625	0		
-0.019566762924194337	-0.00455224084854126	0		0.515879150390625	-2.538378173828125	0		-0.9311880493164062	0.36556478881835935	0		-0.31847433471679687	-3.345804931640625	0		1.7032071533203126	-0.8840379638671875	0		3.001307373046875	0.30227813720703123	0		4.364650390625	0.4232795715332031	0		6.00119384765625	0.49646075439453125	0		-0.056867450714111326	5.93902734375	0		
0.0441536979675293	-1.9065099954605102E-4	0		0.5305374145507813	-2.53515966796875	0		-0.8695504150390625	0.364974853515625	0		-0.36364154052734377	-3.33151904296875	0		1.70513671875	-0.8666087036132812	0		3.04592919921875	0.30093438720703125	0		4.35917578125	0.41679962158203127	0		5.99186181640625	0.4980277404785156	0		-0.05714403533935547	5.9395185546875	0		
-0.033202476501464843	0.0026605179309844972	0		0.5301090087890625	-2.53467529296875	0		-0.8749822387695313	0.3625714111328125	0		-0.3429806518554688	-3.32539111328125	0		1.696037841796875	-0.8489879150390625	0		3.01557080078125	0.30290576171875	0		4.35879736328125	0.4172197265625	0		6.00046533203125	0.49726177978515623	0		-0.058412353515625	5.9410302734375	0		
0.053183143615722656	-0.008379618644714355	0		0.5104942932128906	-2.5418544921875	0		-0.951457763671875	0.36042745971679685	0		-0.3625586242675781	-3.329552978515625	0		1.7009664306640624	-0.8276197509765625	0		3.03502587890625	0.2959861145019531	0		4.37525537109375	0.410325439453125	0		6.0039091796875	0.48956353759765625	0		-0.19011782836914062	5.91984423828125	0		
-0.03103120994567871	0.007598029136657715	0		0.5160783081054687	-2.534479736328125	0		-0.9419429321289062	0.35976959228515626	0		-0.3579942932128906	-3.322138427734375	0		1.683791748046875	-0.8088695678710938	0		3.036522705078125	0.29436972045898435	0		4.3717734375	0.4097636413574219	0		6.00344677734375	0.48990756225585935	0		-0.17330508422851562	5.9280419921875	0		
-0.021749332427978517	-0.002082360029220581	0		0.5096939086914063	-2.520896484375	0		-0.8664127197265625	0.3629447021484375	0		-0.35251058959960935	-3.31474072265625	0		1.6998634033203126	-0.7727150268554688	0		3.05621923828125	0.3074162902832031	0		4.38626123046875	0.41086056518554687	0		6.002921875	0.490221435546875	0		-0.1898411407470703	5.91882666015625	0		
-0.02236545944213867	-0.0015889619588851929	0		0.531862548828125	-2.527828857421875	0		-0.8861375122070313	0.3568058776855469	0		-0.36611520385742186	-3.307006103515625	0		1.6933458251953124	-0.7651759033203125	0		3.0321025390625	0.27921597290039063	0		4.3815361328125	0.4042733154296875	0		5.99818115234375	0.4825782775878906	0		-0.05686457443237305	5.93996044921875	0		
-0.035956066131591795	0.0051320910453796385	0		0.494267333984375	-2.515702880859375	0		-0.8868231201171874	0.357329833984375	0		-0.3659065856933594	-3.304520263671875	0		1.7207725830078124	-0.7562510986328125	0		3.06449755859375	0.2840008544921875	0		4.37672802734375	0.39766650390625	0		5.9926435546875	0.49092459106445313	0		-0.05831706237792969	5.94147021484375	0		
-0.02690087699890137	-0.0035576729774475097	0		0.52033935546875	-2.51771923828125	0		-0.8916618041992187	0.35392453002929686	0		-0.36579205322265623	-3.302037353515625	0		1.684552490234375	-0.7222003784179688	0		3.06860107421875	0.2772703857421875	0		4.38494287109375	0.3968089294433594	0		5.99673779296875	0.4830719299316406	0		-0.05786967468261719	5.9409404296875	0		
-0.02776039695739746	-0.00307624888420105	0		0.5042981872558594	-2.520993408203125	0		-0.8884344482421875	0.35837249755859374	0		-0.3617106018066406	-3.296631103515625	0		1.709014404296875	-0.702245849609375	0		3.0628798828125	0.28470156860351564	0		4.38895703125	0.3890047607421875	0		6.00004248046875	0.49121096801757813	0		-0.17567689514160156	5.930517578125	0		
0.03844961929321289	0.00419605302810669	0		0.5223959350585937	-2.5128857421875	0		-0.8934109497070313	0.35496078491210936	0		-0.35666561889648435	-3.2892490234375	0		1.697508544921875	-0.6766604614257813	0		3.079717041015625	0.270708740234375	0		4.38805322265625	0.38926922607421877	0		6.00330419921875	0.5003255004882813	0		-0.05912051010131836	5.94089990234375	0		
-0.029652603149414064	-0.0021339359283447266	0		0.49435800170898436	-2.508961181640625	0		-0.8943624267578125	0.35547183227539064	0		-0.36963729858398436	-3.27955078125	0		1.699828125	-0.6583370361328125	0		3.074887939453125	0.2780900573730469	0		4.3868515625	0.3755159912109375	0		5.99819873046875	0.49156185913085937	0		-0.059790081024169925	5.94136865234375	0		
0.04631630706787109	-0.004063389778137207	0		0.5201650390625	-2.5120166015625	0		-0.9093956909179688	0.35322998046875	0		-0.3697950439453125	-3.278091796875	0		1.7033509521484376	-0.627047607421875	0		3.073685791015625	0.2663851623535156	0		4.39072607421875	0.3676501770019531	0		5.98891943359375	0.47484588623046875	0		-0.0604731216430664	5.94182958984375	0		
-0.03167033576965332	-0.0012250009775161743	0		0.4920637512207031	-2.508110107421875	0		-0.9004124145507812	0.3525491638183594	0		-0.3679267578125	-3.273677490234375	0		1.7255838623046875	-0.611114990234375	0		3.077574462890625	0.26056900024414065	0		4.38258642578125	0.35997653198242185	0		5.98723681640625	0.4919686584472656	0		-0.06115218734741211	5.94228125	0		
0.0442774772644043	-0.003181731939315796	0		0.4949607238769531	-2.503774658203125	0		-0.901412109375	0.353043212890625	0		-0.46182470703125	-3.254530517578125	0		1.6698790283203124	-0.59078662109375	0		3.094312255859375	0.246494873046875	0		4.3915673828125	0.35896551513671876	0		5.995244140625	0.4918773193359375	0		-0.19126005554199219	5.9190693359375	0		
-0.02572604179382324	-0.0014975049495697021	0		0.4968698425292969	-2.498432861328125	0		-0.8983311157226562	0.35745977783203126	0		-0.358146484375	-3.259982177734375	0		1.7102918701171874	-0.565218994140625	0		3.08355224609375	0.25989895629882814	0		4.4023193359375	0.34488687133789064	0		5.99426220703125	0.49190817260742187	0		-0.19384388732910157	5.92154833984375	0		
0.03242922973632813	0.006845932960510254	0		0.4827651672363281	-2.4938095703125	0		-0.91252197265625	0.346186767578125	0		-0.3711966552734375	-3.249316162109375	0		1.6877125244140625	-0.539522216796875	0		3.08413232421875	0.236065673828125	0		4.40134521484375	0.34499081420898436	0		5.98498876953125	0.47504617309570313	0		-0.19539665222167968	5.9230029296875	0		
-0.03568231582641602	4.907470047473908E-4	0		0.489391845703125	-2.50457666015625	0		-0.9193787231445313	0.3517822265625	0		-0.3724251708984375	-3.2488720703125	0		1.6989677734375	-0.5244608154296875	0		3.092154296875	0.23507652282714844	0		4.3921396484375	0.33121389770507814	0		5.98019677734375	0.4830692443847656	0		-0.07673155212402344	5.93224560546875	0		
